<svg viewBox="0 0 14 13" fill="none" xmlns="http://www.w3.org/2000/svg">
<title>repeat</title>
<path fill-rule="evenodd" clip-rule="evenodd"
      d="M9.40513 3.27052C7.7111 1.57649 4.96454 1.57649 3.27052 3.27052C1.57649 4.96454 1.57649 7.7111 3.27052 9.40513C4.96454 11.0992 7.7111 11.0992 9.40513 9.40513C9.79565 9.0146 10.4288 9.0146 10.8193 9.40513C11.2099 9.79565 11.2099 10.4288 10.8193 10.8193C8.34427 13.2944 4.33138 13.2944 1.85631 10.8193C-0.618768 8.34427 -0.618769 4.33138 1.85631 1.85631C4.33138 -0.618769 8.34427 -0.618769 10.8193 1.85631L11.943 2.97995V1.61972C11.943 1.06744 12.3907 0.619723 12.943 0.619723C13.4953 0.619723 13.943 1.06744 13.943 1.61972V5.39413C13.943 5.65935 13.8376 5.9137 13.6501 6.10124C13.4626 6.28878 13.2082 6.39413 12.943 6.39413L9.16857 6.39413C8.61628 6.39413 8.16857 5.94642 8.16857 5.39413C8.16857 4.84185 8.61628 4.39413 9.16857 4.39413L10.5287 4.39413L9.40513 3.27052Z" fill="white"/>
</svg>
